<svg xmlns="http://www.w3.org/2000/svg" viewBox="0 0 336.18 94.11"><defs><style>.cls-1{fill:#fff;}</style></defs><g id="Layer_2" data-name="Layer 2"><g id="Layer_1-2" data-name="Layer 1"><path class="cls-1" d="M334.94,46.86a17,17,0,0,1,.94,9.48v0a46.14,46.14,0,0,1-20.71,28.76,53.94,53.94,0,0,1-6.45,3.3,45.92,45.92,0,0,1-16.27,3.48c.7-11.62,6.16-16.82,11.92-22.31,3.47-3.3,7.06-6.72,9.62-11.56,5.13-9.72,8.38-23.31-1.4-36.7a49.61,49.61,0,0,1,22.36,25.5Z"/><path class="cls-1" d="M297,.39c-5.53,3.07-9.18,9.25-10.89,13.91a2.76,2.76,0,0,0-.5.34c-6,2.85-10.4,5.09-13.08,6.66a18.06,18.06,0,0,0-6.35,6.3c-1.26,2-4.13,4.65-8.08,7.37a8.52,8.52,0,0,0-2.8,10.64l3.19,6.56a2.5,2.5,0,0,0,3.11,1.25c5.06-1.88,10.31-2.33,10.91-1.38a3.1,3.1,0,0,1-.15,3.31,2.87,2.87,0,0,1-2.68,1.44c-4-.51-7-1.13-7-1.14a2.5,2.5,0,0,0-3,2.12c0,.27-.82,6.63,3,10.89,2.15,2.4,5.22,3.62,9.1,3.62h.4q2.52,0,4.8-.24c0,7.52,4.06,14.8,7.23,19.41A46,46,0,0,1,291.1,0,48.08,48.08,0,0,1,297,.39Z"/><path class="cls-1" d="M335.71,37.07c-.58-1-1.18-2-1.82-2.88-7.72-11.08-18.84-19-29.77-21.24a34.29,34.29,0,0,0-11.82-.21c2.43-4.65,7.36-11.13,15.23-8.72C323.73,8.94,332.8,23.17,335.71,37.07Z"/><path class="cls-1" d="M287.84,47.42c-.61.78-1.22,1.54-1.84,2.3-3.44,4.18-7,8.51-8.5,17.25a52.62,52.62,0,0,1-5.4.31c-2.6.06-4.46-.58-5.69-1.93a7.82,7.82,0,0,1-1.74-4.26c1.2.2,2.71.43,4.38.65a7.74,7.74,0,0,0,7.5-3.67,8,8,0,0,0,.21-8.65c-2.7-4.35-10.4-2.75-14.73-1.41l-2.23-4.57a3.5,3.5,0,0,1,1.14-4.36c4.64-3.19,7.83-6.17,9.5-8.86a13.38,13.38,0,0,1,4.61-4.61c1.88-1.1,4.67-2.56,8.34-4.35l.12.09a16.78,16.78,0,0,1,7.28,9.26A18.38,18.38,0,0,1,287.84,47.42Z"/><path class="cls-1" d="M309.57,55.73c-2.18,4.11-5.33,7.11-8.66,10.28-5.37,5.12-11.35,10.81-13.06,21.89-3-4.49-6.53-11.32-5.78-17.74,1.07-9.09,4.33-13.07,7.78-17.28.65-.79,1.31-1.58,1.94-2.41a23.37,23.37,0,0,0,3.75-21.38,21.74,21.74,0,0,0-7-10.3l.35-.16,0,0a29.39,29.39,0,0,1,13.59-.86C314.77,28.57,317.15,41.35,309.57,55.73Z"/><path class="cls-1" d="M10.68,85.35h.46v1.56h-.46a4.4,4.4,0,0,1-3.84-2.23l-1.56.25-1.22.2a3.26,3.26,0,0,1-2.34-.61A3.78,3.78,0,0,1,.41,79.66a3.5,3.5,0,0,1,2.14-1.87l3.67-1.2V75.41H7.64v6.94a2.86,2.86,0,0,0,.88,2.12A3,3,0,0,0,10.68,85.35ZM4,83.57c.42-.09,1.2-.22,2.33-.38a4.92,4.92,0,0,1-.07-.84V78.12L3,79.23a2.29,2.29,0,0,0-1.33,1.1A2.09,2.09,0,0,0,1.52,82a2.19,2.19,0,0,0,.93,1.23A2,2,0,0,0,4,83.57Z"/><path class="cls-1" d="M21.75,82.71a2.69,2.69,0,0,0,.68,1.93,2.54,2.54,0,0,0,1.91.71v1.56a3.46,3.46,0,0,1-3.14-1.63s-.08.18-.2.4a2.41,2.41,0,0,1-3.24,1.08l-3.21-1.65a4,4,0,0,1-3.39,1.8H10.9V85.35h.26a2.65,2.65,0,0,0,2.55-1.51l1.75-3.36a3.18,3.18,0,0,1,1.91-1.66,3,3,0,0,1,2.46.24A3.85,3.85,0,0,1,21.75,82.71Zm-1.87,2.35a4.94,4.94,0,0,0,.6-2.77A2.27,2.27,0,0,0,19.3,80.4a1.83,1.83,0,0,0-1.55-.12,2.36,2.36,0,0,0-1.26,1.18l-1.22,2.35,3.26,1.68a1,1,0,0,0,.82.05A1.17,1.17,0,0,0,19.88,85.06Z"/><path class="cls-1" d="M31.35,83.14a2.6,2.6,0,0,0,.65,1.7,2.41,2.41,0,0,0,1.72.51v1.56a3.45,3.45,0,0,1-3-1.3,3.66,3.66,0,0,1-3.12,1.3H24.1V85.35h3.48a2.74,2.74,0,0,0,1.86-.52,1.67,1.67,0,0,0,.49-1.52v-.07l-.26-3,1.41-.12.27,3Zm-6.63,7.22L26,89.09l1.27,1.27L26,91.64Zm4,0L30,89.09l1.27,1.27L30,91.64Z"/><path class="cls-1" d="M39.8,81.6A5.88,5.88,0,0,1,40,84a3.14,3.14,0,0,1-.81,1.66,4.1,4.1,0,0,1-1.5,1,5.7,5.7,0,0,1-1.88.31H33.48V85.35h2.28a3.25,3.25,0,0,0,2.34-.77c.54-.51.65-1.38.33-2.59l-1-3.58L38.84,78Zm-5,8.67,1.42-1.44,1.44,1.44L36.2,91.68Z"/><path class="cls-1" d="M59.16,85.35h.7v1.56h-.67a2.64,2.64,0,0,1-1.68-.53.66.66,0,0,0,0,.13.59.59,0,0,1,0,.11,6,6,0,0,1-.06,2.17,4,4,0,0,1-.68,1.53,4.38,4.38,0,0,1-1.32,1,10.21,10.21,0,0,1-1.61.71c-.5.16-1.13.33-1.9.5a7.45,7.45,0,0,1-4.05-.06,4.61,4.61,0,0,1-2.63-2.09,8.1,8.1,0,0,1-1-3.72,12.85,12.85,0,0,1,.88-5l1.37.53q-1.63,4.62-.17,7.14T51.65,91a14.84,14.84,0,0,0,3.14-1,2.83,2.83,0,0,0,1.35-3.19c0-.3-.18-1.32-.43-3s-.41-2.74-.46-3.08l-.07-.46L56.57,80q.09.67.24,1.56a8.86,8.86,0,0,0,.82,2.94A1.65,1.65,0,0,0,59.16,85.35Zm-6.93-4.83L50.79,82l-1.42-1.44,1.42-1.44Z"/><path class="cls-1" d="M67.47,81.68A5.73,5.73,0,0,1,67.62,84a2.94,2.94,0,0,1-.83,1.62,4.22,4.22,0,0,1-1.48.95,5.48,5.48,0,0,1-1.85.31H59.62V85.35h3.84a3.24,3.24,0,0,0,2.33-.77c.52-.51.62-1.38.28-2.59l-.93-3.58L66.51,78Zm-7.64,8.66,1.28-1.27,1.27,1.27-1.27,1.27Zm4,0,1.28-1.27,1.27,1.27-1.27,1.27Z"/><path class="cls-1" d="M72.34,83.64,71,83.93,69.1,72.41l1.39-.29ZM82,85.35h.48v1.56H82A3.42,3.42,0,0,1,79,85.44a3.57,3.57,0,0,1-3.17,1.47H70.08V85.35h5.76a2.31,2.31,0,0,0,1.9-.65,2.35,2.35,0,0,0,.48-1.51l-.46-11.86,1.39-.07L79.61,83a2.36,2.36,0,0,0,.72,1.83A2.53,2.53,0,0,0,82,85.35Z"/><path class="cls-1" d="M82.2,86.91V85.35h1.9a3.28,3.28,0,0,0,2.34-.77c.53-.51.64-1.38.32-2.59l-1-3.58L87.15,78l1,3.57A5.88,5.88,0,0,1,88.26,84a3.14,3.14,0,0,1-.81,1.66,4.06,4.06,0,0,1-1.49,1,5.58,5.58,0,0,1-1.86.31Zm3.34-10.73L84.1,74.76l1.44-1.44L87,74.76Z"/><path class="cls-1" d="M88.54,73.18v-.36a1.75,1.75,0,0,1,.65-1.49A2,2,0,0,1,90.84,71l2.43.45a1.34,1.34,0,0,0,1-.14,1,1,0,0,0,.37-.82v-.17l.79,0v.36a1.76,1.76,0,0,1-.65,1.48,2,2,0,0,1-1.68.32L90.7,72a1.33,1.33,0,0,0-1,.17.92.92,0,0,0-.37.81v.17ZM91.78,87,91.27,73.8l1.42-.07.5,13.15Z"/><path class="cls-1" d="M110.93,85.35h1.18v1.56h-1.18a2.83,2.83,0,0,1-2.57-1.47q-1.08,1.47-4,1.47h-.74a5.38,5.38,0,0,1-2.76-.61,2.27,2.27,0,0,1-1.15-1.7L99.63,83h1.29a6.16,6.16,0,0,0,.12,1.29c.16.71,1,1.06,2.4,1.06h1.13a3.48,3.48,0,0,0,2.46-.64A1.69,1.69,0,0,0,107.4,83a.45.45,0,0,0,0-.08l-1.8-7.08,1.39-.38,1.8,7.1a10.36,10.36,0,0,0,.3,1.08,5.85,5.85,0,0,0,.37.84,1.5,1.5,0,0,0,.6.66A1.75,1.75,0,0,0,110.93,85.35Z"/><path class="cls-1" d="M112.32,91.61l-1.27-1.27,1.27-1.27,1.27,1.27Zm-.45-4.7V85.35h3.45a4.24,4.24,0,0,0,1.24-.16,2.43,2.43,0,0,0,1-.54,1.57,1.57,0,0,0,.53-1,5.16,5.16,0,0,0-.13-1.63L117,78.41l1.37-.38,1,3.65a5.76,5.76,0,0,1,.16,2.35,3,3,0,0,1-.83,1.62,4.26,4.26,0,0,1-1.49.95,5.48,5.48,0,0,1-1.85.31Zm4.41,4.7L115,90.34l1.27-1.27,1.27,1.27Z"/><path class="cls-1" d="M127.61,85.35h.17v1.56h-.17a3.66,3.66,0,0,1-1.44-.24l0,.33a5.39,5.39,0,0,1-.16,2.55,3.36,3.36,0,0,1-1.43,1.73,10.92,10.92,0,0,1-1.94,1c-.59.23-1.46.49-2.59.8l-.36-1.52a30.8,30.8,0,0,0,3.36-1,2.81,2.81,0,0,0,1.77-2.64,5.33,5.33,0,0,0,0-.67l-1-6.92,1.41-.21.39,2.85a4.42,4.42,0,0,0,.62,2A1.62,1.62,0,0,0,127.61,85.35Z"/><path class="cls-1" d="M135.6,78.6l6.14,3.77-.21,1.83-7.06,2a16.21,16.21,0,0,1-2.48.51c-.89.11-1.58.17-2.08.18h-2.37V85.35h.12a25,25,0,0,0,6.45-.65L140.06,83,134.93,80a2.82,2.82,0,0,0-2.35-.33,3.32,3.32,0,0,0-1.92,1.56l-.41.76L129,81.22l.44-.82a4.66,4.66,0,0,1,2.72-2.29A4.16,4.16,0,0,1,135.6,78.6Zm-.89-4.15-1.41,1.44-1.44-1.44L133.3,73Z"/><path class="cls-1" d="M155,87a5.85,5.85,0,0,1-.13,2.1,4,4,0,0,1-.75,1.46,4.26,4.26,0,0,1-1.58,1.06,15.44,15.44,0,0,1-2.2.75c-.74.2-1.76.42-3.07.68L147,91.54A23.59,23.59,0,0,0,152.57,90c.82-.47,1.16-1.39,1-2.76l-.07-.6a17.41,17.41,0,0,1-3.29.31,3.67,3.67,0,0,1-2.63-1,3.82,3.82,0,0,1-1.16-2.59,4.89,4.89,0,0,1,.9-3.3,3.46,3.46,0,0,1,2.84-1.57,3.61,3.61,0,0,1,3,1.21,6,6,0,0,1,1.44,3.49Zm-4.78-1.68a18,18,0,0,0,3.15-.31l-.17-1.66a4.38,4.38,0,0,0-1-2.51,2.39,2.39,0,0,0-2-.85,2.18,2.18,0,0,0-1.85,1,3.31,3.31,0,0,0-.56,2.17,2.24,2.24,0,0,0,.71,1.56A2.38,2.38,0,0,0,150.24,85.35Z"/><path class="cls-1" d="M167.33,79a3.64,3.64,0,0,1,1.86,2.74,6.06,6.06,0,0,1-.66,3.9,2.4,2.4,0,0,1-1.38,1.22,2.33,2.33,0,0,1-1.86-.14l-4.56-2.37.41,9.67-1.42,0-.41-11,1-.63,1.32.7L163,80.43A3.16,3.16,0,0,1,167.33,79Zm.07,6a4.81,4.81,0,0,0,.6-2.78,2.27,2.27,0,0,0-1.18-1.88,1.79,1.79,0,0,0-1.55-.11A2.23,2.23,0,0,0,164,81.44l-1.2,2.37L166,85.47a1,1,0,0,0,.79.07A1,1,0,0,0,167.4,85Z"/><path class="cls-1" d="M173.9,83.64l-1.39.29-1.85-11.52,1.4-.29Zm9.63,1.71H184v1.56h-.48a3.41,3.41,0,0,1-2.95-1.47,3.58,3.58,0,0,1-3.17,1.47h-5.76V85.35h5.76a2.27,2.27,0,0,0,1.89-.65,2.24,2.24,0,0,0,.48-1.51l-.45-11.86,1.39-.07L181.18,83a2.36,2.36,0,0,0,.72,1.83A2.51,2.51,0,0,0,183.53,85.35Z"/><path class="cls-1" d="M196.18,85.35v1.56a40.79,40.79,0,0,1-4.35-.16,4.5,4.5,0,0,1-2.23-.8,16.84,16.84,0,0,1-5.4,1h-.43V85.35h.43a18.4,18.4,0,0,0,4.39-.51l-3.19-4.29.38-1.23,5.81-.84a2.6,2.6,0,0,1,2.63,1.12,2.78,2.78,0,0,1,.35,2.89,6,6,0,0,1-3.07,2.69A37.83,37.83,0,0,0,196.18,85.35Zm-9-4.8,2.95,3.84c1.84-.67,2.93-1.56,3.29-2.67a1.29,1.29,0,0,0-.16-1.35,1.21,1.21,0,0,0-1.24-.49Z"/><path class="cls-1" d="M203.18,83.14a2.66,2.66,0,0,0,.65,1.7,2.43,2.43,0,0,0,1.73.51v1.56a3.45,3.45,0,0,1-3-1.3,3.66,3.66,0,0,1-3.12,1.3h-3.48V85.35h3.48a2.77,2.77,0,0,0,1.86-.52,1.7,1.7,0,0,0,.49-1.52v-.07l-.27-3,1.42-.12.26,3Zm-3.31-6.6-1.27,1.27-1.27-1.27,1.27-1.27Zm4,0-1.27,1.27-1.27-1.27,1.27-1.27Z"/><path class="cls-1" d="M221.9,81.6a4.62,4.62,0,0,1,0,3,3.42,3.42,0,0,1-1.44,1.75,4.15,4.15,0,0,1-2.16.57,3.4,3.4,0,0,1-2.93-1.42,3.4,3.4,0,0,1-3,1.42,3.35,3.35,0,0,1-2.93-1.44,3.4,3.4,0,0,1-3,1.44h-1.13V85.35h1.13c1.5,0,2.29-.67,2.37-2V80.19h1.32v3.17a1.86,1.86,0,0,0,.6,1.45,2.4,2.4,0,0,0,1.66.54c1.57,0,2.35-.73,2.35-2.19v-3h1.35v3.17a1.86,1.86,0,0,0,.6,1.45,2.34,2.34,0,0,0,1.63.54,2.56,2.56,0,0,0,2-.77,2.74,2.74,0,0,0,.23-2.59l-1-3.58,1.36-.38Z"/><path class="cls-1" d="M224.93,87l-.6-15.63,1.41-.07.6,15.62Z"/><path class="cls-1" d="M11.92,52.78a17.16,17.16,0,0,1-2.59-.2,9,9,0,0,1-2.73-.87A9.75,9.75,0,0,1,4,49.83a10.22,10.22,0,0,1-2.12-3.27A13.86,13.86,0,0,1,1.32,45a19,19,0,0,1-.49-2.11c-.14-.8-.26-1.71-.35-2.74s-.13-2.18-.13-3.5c0-.82,0-1.7.08-2.61a18.42,18.42,0,0,1,.33-2.75,17.27,17.27,0,0,1,.74-2.71,10.24,10.24,0,0,1,1.28-2.48,9.22,9.22,0,0,1,2.58-2.59,11.51,11.51,0,0,1,2.9-1.4,12.52,12.52,0,0,1,2.81-.57c.9-.07,1.65-.1,2.27-.1h9.28V17.79h7V47.46h6.27v5.32ZM8.36,43.9a5.48,5.48,0,0,0,1.29,1.88,5.78,5.78,0,0,0,1.64,1.07,6.57,6.57,0,0,0,1.75.5,14,14,0,0,0,1.66.11h7.9c0-.27,0-.55,0-.85s0-.58,0-.83V26.72H14.7a13,13,0,0,0-1.48.09,6.37,6.37,0,0,0-1.56.39,6.26,6.26,0,0,0-1.5.85A5.16,5.16,0,0,0,8.89,29.5a6.59,6.59,0,0,0-.51,1A8.22,8.22,0,0,0,8,32a18.4,18.4,0,0,0-.31,2.07c-.08.79-.11,1.72-.11,2.78,0,1.23,0,2.27.1,3.11s.14,1.52.23,2.06a10.13,10.13,0,0,0,.27,1.25C8.23,43.56,8.31,43.77,8.36,43.9Z"/><path class="cls-1" d="M60.4,53.13c-.95,0-2,0-3.1-.09a23,23,0,0,1-3.37-.42,17.52,17.52,0,0,1-3.29-1,10,10,0,0,1-2.91-1.86,1.38,1.38,0,0,1-.26-.23,8.35,8.35,0,0,1-2.16,1.68,11.22,11.22,0,0,1-2.4,1,13.28,13.28,0,0,1-2.47.47c-.83.07-1.62.11-2.37.11H35V47.46h1.16q.69,0,1.59-.06A7.35,7.35,0,0,0,39.53,47a5.89,5.89,0,0,0,1.75-.95,5.22,5.22,0,0,0,1.42-1.84,13.39,13.39,0,0,0,.58-1.68,16.76,16.76,0,0,0,.43-3.35c0-.39,0-.74,0-1.07v-1c0-.86,0-1.87.12-3a20.56,20.56,0,0,1,.53-3.47,17.64,17.64,0,0,1,1.22-3.44,9.05,9.05,0,0,1,2.18-2.92,9.62,9.62,0,0,1,2.91-1.88,16.78,16.78,0,0,1,3.29-1,24.34,24.34,0,0,1,3.37-.39c1.12-.05,2.15-.08,3.1-.08s2,0,3.08.08a24.06,24.06,0,0,1,3.35.39,17.06,17.06,0,0,1,3.32,1,9.54,9.54,0,0,1,2.92,1.88,9.2,9.2,0,0,1,2.18,2.92,16.85,16.85,0,0,1,1.2,3.43A22.27,22.27,0,0,1,77,34.1c.08,1.1.12,2,.12,2.86a27.55,27.55,0,0,1-.61,6.19,16,16,0,0,1-1.62,4.31h5.55v5.32H69.57ZM52.82,28.86a7,7,0,0,0-1.29,2.4A14.22,14.22,0,0,0,51,34a25.55,25.55,0,0,0-.1,2.75q0,1.36,0,2.58a15.54,15.54,0,0,0,.49,3.09,7.22,7.22,0,0,0,1.51,2.83,6.62,6.62,0,0,0,1.69,1.39,7.64,7.64,0,0,0,1.88.78,11.1,11.1,0,0,0,2,.35c.68.06,1.33.09,2,.09s1.31,0,2-.09a10.62,10.62,0,0,0,1.95-.35,7.29,7.29,0,0,0,1.85-.78,7.33,7.33,0,0,0,2.88-3.22,9.54,9.54,0,0,0,.62-2,12.5,12.5,0,0,0,.23-2.11c0-.72,0-1.42,0-2.11V35.26c0-.53,0-1.07-.08-1.64a11.42,11.42,0,0,0-.32-1.71,9.43,9.43,0,0,0-.62-1.63,6.08,6.08,0,0,0-1-1.42,6.73,6.73,0,0,0-1.69-1.33,8.84,8.84,0,0,0-1.9-.75,11.06,11.06,0,0,0-2-.33c-.66-.05-1.32-.07-2-.07s-1.18,0-1.87.07a12.15,12.15,0,0,0-2.05.33,9.28,9.28,0,0,0-2,.75A5.53,5.53,0,0,0,52.82,28.86Z"/><path class="cls-1" d="M79.92,52.75V47.43h.7A9,9,0,0,0,83.71,47a4.13,4.13,0,0,0,1.91-1.45,6.12,6.12,0,0,0,1-2.46,18.51,18.51,0,0,0,.27-2.86,2.53,2.53,0,0,1,0-.38v-.4h0V21.37h6.91V39.45L94,43.73a4.33,4.33,0,0,0,1.1,2,5.32,5.32,0,0,0,1.7,1.13,7.66,7.66,0,0,0,2,.51c.71.07,1.39.11,2,.11h.76v5.32H98.75c-.67,0-1.36,0-2.07-.07a15.67,15.67,0,0,1-2.12-.3,10,10,0,0,1-2.1-.71,7.7,7.7,0,0,1-1.92-1.29,7.84,7.84,0,0,1-1.93,1.27,10,10,0,0,1-2.06.71,12.4,12.4,0,0,1-2.2.31c-.75,0-1.54,0-2.35,0Z"/><path class="cls-1" d="M101,52.75V47.43h3.38a9.05,9.05,0,0,0,3.1-.43,4.18,4.18,0,0,0,1.91-1.45A5.82,5.82,0,0,0,110.44,43a19.64,19.64,0,0,0,.23-3V21.37h6.91V42.05a14.74,14.74,0,0,1-.25,2.89,10.79,10.79,0,0,1-.66,2.26,8.06,8.06,0,0,1-1,1.72,9.89,9.89,0,0,1-1.18,1.29,8.1,8.1,0,0,1-2,1.37,9.62,9.62,0,0,1-2.12.77,14.15,14.15,0,0,1-2.26.33c-.77,0-1.57.07-2.4.07Zm5.29,10.36V57.58h6.91v5.53Zm-15.52-.17V57.42h6.92v5.52Zm-10.83,0V57.42h6.91v5.52Z"/><path class="cls-1" d="M170.6,52.78a20,20,0,0,1-3.21-.26A5.91,5.91,0,0,1,164.32,51a8.68,8.68,0,0,1-.87-1,7.12,7.12,0,0,1-.78-1.46,10.5,10.5,0,0,1-.56-2,12.6,12.6,0,0,1-.22-2.49V39.19c0-1.08,0-2.44,0-4.07s0-3.62,0-6a1.67,1.67,0,0,0,0-.45c0-.18,0-.37-.09-.56a3.19,3.19,0,0,0-.16-.55,1.24,1.24,0,0,0-.24-.4,1.46,1.46,0,0,0-.94-.41c-.4,0-.75-.06-1.06-.06h-.84a4.07,4.07,0,0,0-1.52.29,3.2,3.2,0,0,0-1.14.78,3,3,0,0,0-.64,1.56,15.62,15.62,0,0,0-.11,1.74l-.06,10.07A26.5,26.5,0,0,1,155,43.9a12.36,12.36,0,0,1-.49,2.45,9.73,9.73,0,0,1-1,2.15,8.3,8.3,0,0,1-1.61,1.88,8.47,8.47,0,0,1-3.51,1.88,19,19,0,0,1-4.65.49h-6a18.8,18.8,0,0,1-4.64-.49,8.44,8.44,0,0,1-3.52-1.88A8.25,8.25,0,0,1,128,48.5a9.32,9.32,0,0,1-1-2.15,12.36,12.36,0,0,1-.49-2.45,26.5,26.5,0,0,1-.13-2.74V31.73h6.94v8.18a17.54,17.54,0,0,0,.25,3.34,5.27,5.27,0,0,0,.91,2.16,4.31,4.31,0,0,0,2.34,1.65,12.83,12.83,0,0,0,3.3.37h1.39a12.69,12.69,0,0,0,3.29-.37,4.3,4.3,0,0,0,2.35-1.65,5.41,5.41,0,0,0,.91-2.16,18.55,18.55,0,0,0,.24-3.34l-.08-9.22c0-.56,0-1.16.08-1.8s.16-1.29.29-2a6.73,6.73,0,0,1,1.94-3.59,7.06,7.06,0,0,1,2.1-1.4,7.78,7.78,0,0,1,3.28-.6l7.52.06h.88a6.21,6.21,0,0,1,1,.14,5.22,5.22,0,0,1,1,.33,3.1,3.1,0,0,1,1,.62A4.13,4.13,0,0,1,168.63,25c.08.48.13.9.16,1.26s0,.66,0,.91V43.18a6,6,0,0,0,.32,2.18,3.26,3.26,0,0,0,.75,1.2,2.65,2.65,0,0,0,1.51.77,11.1,11.1,0,0,0,1.73.13H174v5.32Z"/><path class="cls-1" d="M173.46,52.75V47.43h.69a9.05,9.05,0,0,0,3.1-.43,4.13,4.13,0,0,0,1.91-1.45,6,6,0,0,0,1-2.46,17.33,17.33,0,0,0,.28-2.86s0-.12,0-.26,0-.48,0-1V31.38q0-3.18,0-8.07t0-12h6.91V39.45l.15,4.28a4.31,4.31,0,0,0,1.09,2,5.47,5.47,0,0,0,1.71,1.13,7.56,7.56,0,0,0,2,.51c.71.07,1.38.11,2,.11h.75v5.32h-2.83c-.68,0-1.37,0-2.07-.07a16,16,0,0,1-2.13-.3A10.11,10.11,0,0,1,186,51.7a7.75,7.75,0,0,1-1.93-1.29,7.61,7.61,0,0,1-1.92,1.27,9.92,9.92,0,0,1-2.07.71,12.15,12.15,0,0,1-2.2.31c-.75,0-1.53,0-2.34,0Z"/><path class="cls-1" d="M194.37,47.46H200a10.82,10.82,0,0,1-1-2.2,16.77,16.77,0,0,1-.55-2.4,23.34,23.34,0,0,1-.24-2.57c0-.89-.06-1.81-.06-2.78s0-2,.06-3.08a19.26,19.26,0,0,1,.4-3.35,16.34,16.34,0,0,1,1.07-3.33,10.22,10.22,0,0,1,2-3A10.54,10.54,0,0,1,203,23.71a9.94,9.94,0,0,1,1.92-1.09,13.72,13.72,0,0,1,2.75-.87,17.55,17.55,0,0,1,3.7-.35H224.8v5.32H213.6a10.54,10.54,0,0,0-3.08.41,7.65,7.65,0,0,0-2.24,1.08,6.53,6.53,0,0,0-1.52,1.59,7.25,7.25,0,0,0-.88,1.9,10,10,0,0,0-.27,1.5c-.07.58-.12,1.15-.16,1.72s-.06,1.1-.07,1.59,0,.87,0,1.12c0,.46,0,1,0,1.56s.07,1.17.14,1.76a15.77,15.77,0,0,0,.3,1.74,6.5,6.5,0,0,0,.52,1.44,5.38,5.38,0,0,0,1.51,1.77,7,7,0,0,0,2,1,9.93,9.93,0,0,0,2.18.45c.76.07,1.5.1,2.23.1h11.25v5.32H194.37Z"/></g></g></svg>